<?xml version="1.0" standalone="no"?>
<!DOCTYPE svg PUBLIC "-//W3C//DTD SVG 20010904//EN"
 "http://www.w3.org/TR/2001/REC-SVG-20010904/DTD/svg10.dtd">
<svg version="1.0" xmlns="http://www.w3.org/2000/svg"
 width="700.000000pt" height="700.000000pt" viewBox="0 0 700.000000 700.000000"
 preserveAspectRatio="xMidYMid meet">
<metadata>
Created by potrace 1.14, written by Peter Selinger 2001-2017
</metadata>
<g transform="translate(0.000000,700.000000) scale(0.100000,-0.100000)"
fill="#000000" stroke="none">
<path d="M4499 6001 c-17 -17 -50 -47 -199 -181 -52 -47 -111 -99 -130 -117
-19 -17 -45 -40 -57 -51 -13 -11 -23 -23 -23 -28 0 -5 44 -32 98 -60 53 -28
144 -76 202 -106 58 -31 159 -84 225 -118 66 -34 158 -83 205 -108 47 -25 101
-54 120 -63 l35 -17 1 -77 c0 -74 -1 -77 -25 -86 -14 -5 -35 -14 -46 -19 -11
-5 -121 -48 -245 -95 -124 -47 -235 -91 -248 -97 -19 -10 -32 -7 -85 21 -34
18 -67 39 -72 46 -6 7 -8 36 -5 67 l5 53 -105 64 c-58 35 -150 92 -205 127
-55 34 -120 72 -145 83 -46 21 -75 37 -193 110 -37 22 -70 41 -73 41 -3 0 -24
13 -47 28 -84 57 -273 161 -302 167 -250 49 -557 -161 -728 -497 -125 -244
-146 -495 -56 -670 23 -45 105 -128 127 -128 9 0 -47 -42 -124 -93 -91 -62
-148 -107 -166 -133 -15 -21 -123 -190 -241 -375 l-214 -335 1 -121 c1 -67 -2
-119 -6 -116 -5 2 -8 13 -8 24 0 30 -36 94 -67 120 -16 13 -86 58 -156 99 -71
41 -140 82 -155 91 -297 179 -322 189 -432 169 -257 -47 -505 -318 -585 -640
-2 -8 -15 -112 -18 -150 -5 -52 18 -162 46 -216 31 -61 66 -94 137 -132 81
-42 432 -251 452 -269 10 -9 15 -19 12 -24 -2 -4 -43 15 -89 44 -46 29 -171
105 -276 170 -105 64 -195 114 -200 111 -6 -3 -24 -36 -40 -72 -17 -37 -41
-89 -54 -117 -83 -179 -125 -279 -118 -285 4 -4 152 -103 328 -221 176 -117
321 -217 323 -221 2 -4 8 -8 13 -8 4 0 77 -47 161 -104 84 -57 254 -171 377
-254 l223 -150 82 38 c44 20 108 50 141 65 33 15 128 58 211 96 l152 70 268
-162 c352 -212 332 -203 429 -203 133 0 254 63 396 206 164 166 270 376 312
617 37 216 9 371 -82 447 -24 20 -24 22 -6 27 22 7 105 26 145 33 14 3 43 10
65 15 22 5 51 12 65 15 14 2 33 7 42 10 10 3 30 8 45 10 16 3 69 14 118 25 50
12 101 23 115 25 72 13 148 56 246 137 10 9 102 79 203 155 l184 138 49 -48
c27 -26 62 -55 78 -63 17 -9 121 -70 232 -136 112 -67 219 -130 238 -141 19
-11 79 -49 134 -84 55 -35 118 -69 139 -75 173 -46 373 41 566 247 182 195
279 394 337 689 3 17 7 77 9 135 6 150 -23 255 -90 331 -18 20 -157 109 -340
218 -171 102 -314 188 -319 192 -5 5 -9 22 -8 38 1 27 -8 35 -98 90 -54 34
-101 61 -105 61 -4 0 -48 24 -99 54 l-92 54 -129 -33 -130 -33 -92 50 c-51 27
-93 53 -93 57 0 4 28 28 63 53 112 83 292 218 310 233 14 12 17 32 17 114 l0
99 92 -49 c51 -27 95 -49 99 -49 4 0 12 -6 18 -14 7 -8 87 -52 179 -97 92 -46
212 -107 266 -136 l100 -53 35 32 c19 18 40 38 46 43 7 6 58 53 115 105 57 52
112 103 124 113 25 22 206 189 289 267 36 33 53 56 45 58 -22 7 -123 46 -323
125 -104 41 -206 79 -225 85 -19 5 -163 58 -320 117 -157 60 -302 114 -324
122 -53 19 -595 223 -626 236 -14 6 -27 11 -30 12 -3 1 -18 7 -35 14 -16 7
-95 37 -175 66 -80 29 -156 57 -170 62 -19 7 -29 6 -41 -6z m-2722 -3118 c-3
-10 -5 -4 -5 12 0 17 2 24 5 18 2 -7 2 -21 0 -30z m268 -928 c-36 -142 -34
-332 6 -406 10 -19 9 -20 -13 -8 -44 24 -363 221 -376 233 -9 9 -1 18 40 39
29 15 76 40 103 55 28 16 81 45 118 66 37 20 82 46 100 56 17 11 32 18 33 17
1 -1 -4 -25 -11 -52z"/>
</g>
</svg>
